<svg xmlns="http://www.w3.org/2000/svg" xmlns:xlink="http://www.w3.org/1999/xlink" contentStyleType="text/css" data-diagram-type="CLASS" height="565px" preserveAspectRatio="none" style="width:896px;height:565px;background:#FFFFFF;" version="1.1" viewBox="0 0 896 565" width="896px" zoomAndPan="magnify"><defs/><g><!--class Role--><g class="entity" data-entity="Role" data-source-line="2" data-uid="ent0002" id="entity_Role"><rect fill="#F1F1F1" height="96.8906" rx="2.5" ry="2.5" style="stroke:#181818;stroke-width:0.5;" width="103.3281" x="11.7" y="7"/><ellipse cx="44.9395" cy="23" fill="#EB937F" rx="11" ry="11" style="stroke:#181818;stroke-width:1;"/><path d="M49.0489,29 L41.3301,29 L41.3301,16.6094 L49.0489,16.6094 L49.0489,18.7656 L43.7833,18.7656 L43.7833,21.4375 L48.5489,21.4375 L48.5489,23.5938 L43.7833,23.5938 L43.7833,26.8438 L49.0489,26.8438 L49.0489,29 Z " fill="#000000"/><text fill="#000000" font-family="sans-serif" font-size="14" lengthAdjust="spacing" textLength="30.7959" x="62.9927" y="27.8467">Role</text><line style="stroke:#181818;stroke-width:0.5;" x1="12.7" x2="114.0281" y1="39" y2="39"/><text fill="#000000" font-family="sans-serif" font-size="14" lengthAdjust="spacing" textLength="37.707" x="17.7" y="55.9951">USER</text><text fill="#000000" font-family="sans-serif" font-size="14" lengthAdjust="spacing" textLength="91.3281" x="17.7" y="72.292">MODERATOR</text><text fill="#000000" font-family="sans-serif" font-size="14" lengthAdjust="spacing" textLength="47.0381" x="17.7" y="88.5889">ADMIN</text><line style="stroke:#181818;stroke-width:0.5;" x1="12.7" x2="114.0281" y1="95.8906" y2="95.8906"/></g><!--class UserBase--><g class="entity" data-entity="UserBase" data-source-line="9" data-uid="ent0003" id="entity_UserBase"><rect fill="#F1F1F1" height="64.2969" rx="2.5" ry="2.5" style="stroke:#181818;stroke-width:0.5;" width="109.9453" x="150.4" y="23.3"/><ellipse cx="170.775" cy="39.3" fill="#ADD1B2" rx="11" ry="11" style="stroke:#181818;stroke-width:1;"/><path d="M173.7437,44.9406 Q173.1656,45.2375 172.525,45.3781 Q171.8843,45.5344 171.1812,45.5344 Q168.6812,45.5344 167.3531,43.8937 Q166.0406,42.2375 166.0406,39.1125 Q166.0406,35.9875 167.3531,34.3312 Q168.6812,32.675 171.1812,32.675 Q171.8843,32.675 172.525,32.8312 Q173.1812,32.9875 173.7437,33.2844 L173.7437,36.0031 Q173.1187,35.425 172.525,35.1594 Q171.9312,34.8781 171.3062,34.8781 Q169.9625,34.8781 169.275,35.9562 Q168.5875,37.0187 168.5875,39.1125 Q168.5875,41.2062 169.275,42.2844 Q169.9625,43.3469 171.3062,43.3469 Q171.9312,43.3469 172.525,43.0812 Q173.1187,42.8 173.7437,42.2219 L173.7437,44.9406 Z " fill="#000000"/><text fill="#000000" font-family="sans-serif" font-size="14" lengthAdjust="spacing" textLength="66.001" x="185.9694" y="44.1467">UserBase</text><line style="stroke:#181818;stroke-width:0.5;" x1="151.4" x2="259.3453" y1="55.3" y2="55.3"/><text fill="#000000" font-family="sans-serif" font-size="14" lengthAdjust="spacing" textLength="97.9453" x="156.4" y="72.2951">username: str</text><line style="stroke:#181818;stroke-width:0.5;" x1="151.4" x2="259.3453" y1="79.5969" y2="79.5969"/></g><!--class UserCreate--><g class="entity" data-entity="UserCreate" data-source-line="13" data-uid="ent0004" id="entity_UserCreate"><rect fill="#F1F1F1" height="64.2969" rx="2.5" ry="2.5" style="stroke:#181818;stroke-width:0.5;" width="110.7363" x="7" y="180.19"/><ellipse cx="22" cy="196.19" fill="#ADD1B2" rx="11" ry="11" style="stroke:#181818;stroke-width:1;"/><path d="M24.9688,201.8306 Q24.3906,202.1275 23.75,202.2681 Q23.1094,202.4244 22.4063,202.4244 Q19.9063,202.4244 18.5781,200.7838 Q17.2656,199.1275 17.2656,196.0025 Q17.2656,192.8775 18.5781,191.2213 Q19.9063,189.565 22.4063,189.565 Q23.1094,189.565 23.75,189.7213 Q24.4063,189.8775 24.9688,190.1744 L24.9688,192.8931 Q24.3438,192.315 23.75,192.0494 Q23.1563,191.7681 22.5313,191.7681 Q21.1875,191.7681 20.5,192.8463 Q19.8125,193.9088 19.8125,196.0025 Q19.8125,198.0963 20.5,199.1744 Q21.1875,200.2369 22.5313,200.2369 Q23.1563,200.2369 23.75,199.9713 Q24.3438,199.69 24.9688,199.1119 L24.9688,201.8306 Z " fill="#000000"/><text fill="#000000" font-family="sans-serif" font-size="14" lengthAdjust="spacing" textLength="78.7363" x="36" y="201.0367">UserCreate</text><line style="stroke:#181818;stroke-width:0.5;" x1="8" x2="116.7363" y1="212.19" y2="212.19"/><text fill="#000000" font-family="sans-serif" font-size="14" lengthAdjust="spacing" textLength="94.418" x="13" y="229.1851">password: str</text><line style="stroke:#181818;stroke-width:0.5;" x1="8" x2="116.7363" y1="236.4869" y2="236.4869"/></g><!--class UserPublic--><g class="entity" data-entity="UserPublic" data-source-line="17" data-uid="ent0006" id="entity_UserPublic"><rect fill="#F1F1F1" height="80.5938" rx="2.5" ry="2.5" style="stroke:#181818;stroke-width:0.5;" width="105.5889" x="152.57" y="172.04"/><ellipse cx="167.57" cy="188.04" fill="#ADD1B2" rx="11" ry="11" style="stroke:#181818;stroke-width:1;"/><path d="M170.5388,193.6806 Q169.9606,193.9775 169.32,194.1181 Q168.6794,194.2744 167.9763,194.2744 Q165.4763,194.2744 164.1481,192.6337 Q162.8356,190.9775 162.8356,187.8525 Q162.8356,184.7275 164.1481,183.0712 Q165.4763,181.415 167.9763,181.415 Q168.6794,181.415 169.32,181.5712 Q169.9763,181.7275 170.5388,182.0244 L170.5388,184.7431 Q169.9138,184.165 169.32,183.8994 Q168.7263,183.6181 168.1013,183.6181 Q166.7575,183.6181 166.07,184.6962 Q165.3825,185.7587 165.3825,187.8525 Q165.3825,189.9462 166.07,191.0244 Q166.7575,192.0869 168.1013,192.0869 Q168.7263,192.0869 169.32,191.8212 Q169.9138,191.54 170.5388,190.9619 L170.5388,193.6806 Z " fill="#000000"/><text fill="#000000" font-family="sans-serif" font-size="14" lengthAdjust="spacing" textLength="73.5889" x="181.57" y="192.8867">UserPublic</text><line style="stroke:#181818;stroke-width:0.5;" x1="153.57" x2="257.1589" y1="204.04" y2="204.04"/><text fill="#000000" font-family="sans-serif" font-size="14" lengthAdjust="spacing" textLength="40.1953" x="158.57" y="221.0351">id: int</text><text fill="#000000" font-family="sans-serif" font-size="14" lengthAdjust="spacing" textLength="66.7871" x="158.57" y="237.332">role: Role</text><line style="stroke:#181818;stroke-width:0.5;" x1="153.57" x2="257.1589" y1="244.6337" y2="244.6337"/></g><!--class TeamBase--><g class="entity" data-entity="TeamBase" data-source-line="22" data-uid="ent0008" id="entity_TeamBase"><rect fill="#F1F1F1" height="64.2969" rx="2.5" ry="2.5" style="stroke:#181818;stroke-width:0.5;" width="105.4727" x="629.63" y="180.19"/><ellipse cx="644.63" cy="196.19" fill="#ADD1B2" rx="11" ry="11" style="stroke:#181818;stroke-width:1;"/><path d="M647.5988,201.8306 Q647.0206,202.1275 646.38,202.2681 Q645.7394,202.4244 645.0363,202.4244 Q642.5363,202.4244 641.2081,200.7838 Q639.8956,199.1275 639.8956,196.0025 Q639.8956,192.8775 641.2081,191.2213 Q642.5363,189.565 645.0363,189.565 Q645.7394,189.565 646.38,189.7213 Q647.0363,189.8775 647.5988,190.1744 L647.5988,192.8931 Q646.9738,192.315 646.38,192.0494 Q645.7863,191.7681 645.1613,191.7681 Q643.8175,191.7681 643.13,192.8463 Q642.4425,193.9088 642.4425,196.0025 Q642.4425,198.0963 643.13,199.1744 Q643.8175,200.2369 645.1613,200.2369 Q645.7863,200.2369 646.38,199.9713 Q646.9738,199.69 647.5988,199.1119 L647.5988,201.8306 Z " fill="#000000"/><text fill="#000000" font-family="sans-serif" font-size="14" lengthAdjust="spacing" textLength="73.4727" x="658.63" y="201.0367">TeamBase</text><line style="stroke:#181818;stroke-width:0.5;" x1="630.63" x2="734.1027" y1="212.19" y2="212.19"/><text fill="#000000" font-family="sans-serif" font-size="14" lengthAdjust="spacing" textLength="67.4092" x="635.63" y="229.1851">name: str</text><line style="stroke:#181818;stroke-width:0.5;" x1="630.63" x2="734.1027" y1="236.4869" y2="236.4869"/></g><!--class TeamCreate--><g class="entity" data-entity="TeamCreate" data-source-line="25" data-uid="ent0009" id="entity_TeamCreate"><rect fill="#F1F1F1" height="48" rx="2.5" ry="2.5" style="stroke:#181818;stroke-width:0.5;" width="118.208" x="623.26" y="345.23"/><ellipse cx="638.26" cy="361.23" fill="#ADD1B2" rx="11" ry="11" style="stroke:#181818;stroke-width:1;"/><path d="M641.2288,366.8706 Q640.6506,367.1675 640.01,367.3081 Q639.3694,367.4644 638.6663,367.4644 Q636.1663,367.4644 634.8381,365.8238 Q633.5256,364.1675 633.5256,361.0425 Q633.5256,357.9175 634.8381,356.2613 Q636.1663,354.605 638.6663,354.605 Q639.3694,354.605 640.01,354.7613 Q640.6663,354.9175 641.2288,355.2144 L641.2288,357.9331 Q640.6038,357.355 640.01,357.0894 Q639.4163,356.8081 638.7913,356.8081 Q637.4475,356.8081 636.76,357.8863 Q636.0725,358.9488 636.0725,361.0425 Q636.0725,363.1363 636.76,364.2144 Q637.4475,365.2769 638.7913,365.2769 Q639.4163,365.2769 640.01,365.0113 Q640.6038,364.73 641.2288,364.1519 L641.2288,366.8706 Z " fill="#000000"/><text fill="#000000" font-family="sans-serif" font-size="14" lengthAdjust="spacing" textLength="86.208" x="652.26" y="366.0767">TeamCreate</text><line style="stroke:#181818;stroke-width:0.5;" x1="624.26" x2="740.468" y1="377.23" y2="377.23"/><line style="stroke:#181818;stroke-width:0.5;" x1="624.26" x2="740.468" y1="385.23" y2="385.23"/></g><!--class TeamPublic--><g class="entity" data-entity="TeamPublic" data-source-line="26" data-uid="ent0011" id="entity_TeamPublic"><rect fill="#F1F1F1" height="80.5938" rx="2.5" ry="2.5" style="stroke:#181818;stroke-width:0.5;" width="113.0605" x="776.84" y="328.93"/><ellipse cx="791.84" cy="344.93" fill="#ADD1B2" rx="11" ry="11" style="stroke:#181818;stroke-width:1;"/><path d="M794.8088,350.5706 Q794.2306,350.8675 793.59,351.0081 Q792.9494,351.1644 792.2463,351.1644 Q789.7463,351.1644 788.4181,349.5237 Q787.1056,347.8675 787.1056,344.7425 Q787.1056,341.6175 788.4181,339.9612 Q789.7463,338.305 792.2463,338.305 Q792.9494,338.305 793.59,338.4612 Q794.2463,338.6175 794.8088,338.9144 L794.8088,341.6331 Q794.1838,341.055 793.59,340.7894 Q792.9963,340.5081 792.3713,340.5081 Q791.0275,340.5081 790.34,341.5862 Q789.6525,342.6487 789.6525,344.7425 Q789.6525,346.8362 790.34,347.9144 Q791.0275,348.9769 792.3713,348.9769 Q792.9963,348.9769 793.59,348.7112 Q794.1838,348.43 794.8088,347.8519 L794.8088,350.5706 Z " fill="#000000"/><text fill="#000000" font-family="sans-serif" font-size="14" lengthAdjust="spacing" textLength="81.0605" x="805.84" y="349.7767">TeamPublic</text><line style="stroke:#181818;stroke-width:0.5;" x1="777.84" x2="888.9005" y1="360.93" y2="360.93"/><text fill="#000000" font-family="sans-serif" font-size="14" lengthAdjust="spacing" textLength="40.1953" x="782.84" y="377.9251">id: int</text><text fill="#000000" font-family="sans-serif" font-size="14" lengthAdjust="spacing" textLength="77.7314" x="782.84" y="394.222">user_id: int</text><line style="stroke:#181818;stroke-width:0.5;" x1="777.84" x2="888.9005" y1="401.5237" y2="401.5237"/></g><!--class PokemonBase--><g class="entity" data-entity="PokemonBase" data-source-line="31" data-uid="ent0013" id="entity_PokemonBase"><rect fill="#F1F1F1" height="96.8906" rx="2.5" ry="2.5" style="stroke:#181818;stroke-width:0.5;" width="130.8955" x="456.92" y="320.79"/><ellipse cx="471.92" cy="336.79" fill="#ADD1B2" rx="11" ry="11" style="stroke:#181818;stroke-width:1;"/><path d="M474.8888,342.4306 Q474.3106,342.7275 473.67,342.8681 Q473.0294,343.0244 472.3263,343.0244 Q469.8263,343.0244 468.4981,341.3837 Q467.1856,339.7275 467.1856,336.6025 Q467.1856,333.4775 468.4981,331.8212 Q469.8263,330.165 472.3263,330.165 Q473.0294,330.165 473.67,330.3212 Q474.3263,330.4775 474.8888,330.7744 L474.8888,333.4931 Q474.2638,332.915 473.67,332.6494 Q473.0763,332.3681 472.4513,332.3681 Q471.1075,332.3681 470.42,333.4462 Q469.7325,334.5087 469.7325,336.6025 Q469.7325,338.6962 470.42,339.7744 Q471.1075,340.8369 472.4513,340.8369 Q473.0763,340.8369 473.67,340.5712 Q474.2638,340.29 474.8888,339.7119 L474.8888,342.4306 Z " fill="#000000"/><text fill="#000000" font-family="sans-serif" font-size="14" lengthAdjust="spacing" textLength="98.8955" x="485.92" y="341.6367">PokemonBase</text><line style="stroke:#181818;stroke-width:0.5;" x1="457.92" x2="586.8155" y1="352.79" y2="352.79"/><text fill="#000000" font-family="sans-serif" font-size="14" lengthAdjust="spacing" textLength="67.4092" x="462.92" y="369.7851">name: str</text><text fill="#000000" font-family="sans-serif" font-size="14" lengthAdjust="spacing" textLength="79.9941" x="462.92" y="386.082">species: str</text><text fill="#000000" font-family="sans-serif" font-size="14" lengthAdjust="spacing" textLength="60.71" x="462.92" y="402.3789">level: int</text><line style="stroke:#181818;stroke-width:0.5;" x1="457.92" x2="586.8155" y1="409.6806" y2="409.6806"/></g><!--class PokemonCreate--><g class="entity" data-entity="PokemonCreate" data-source-line="36" data-uid="ent0014" id="entity_PokemonCreate"><rect fill="#F1F1F1" height="48" rx="2.5" ry="2.5" style="stroke:#181818;stroke-width:0.5;" width="143.6309" x="453.55" y="493.97"/><ellipse cx="468.55" cy="509.97" fill="#ADD1B2" rx="11" ry="11" style="stroke:#181818;stroke-width:1;"/><path d="M471.5188,515.6106 Q470.9406,515.9075 470.3,516.0481 Q469.6594,516.2044 468.9563,516.2044 Q466.4563,516.2044 465.1281,514.5638 Q463.8156,512.9075 463.8156,509.7825 Q463.8156,506.6575 465.1281,505.0013 Q466.4563,503.345 468.9563,503.345 Q469.6594,503.345 470.3,503.5013 Q470.9563,503.6575 471.5188,503.9544 L471.5188,506.6731 Q470.8938,506.095 470.3,505.8294 Q469.7063,505.5481 469.0813,505.5481 Q467.7375,505.5481 467.05,506.6263 Q466.3625,507.6888 466.3625,509.7825 Q466.3625,511.8763 467.05,512.9544 Q467.7375,514.0169 469.0813,514.0169 Q469.7063,514.0169 470.3,513.7513 Q470.8938,513.47 471.5188,512.8919 L471.5188,515.6106 Z " fill="#000000"/><text fill="#000000" font-family="sans-serif" font-size="14" lengthAdjust="spacing" textLength="111.6309" x="482.55" y="514.8167">PokemonCreate</text><line style="stroke:#181818;stroke-width:0.5;" x1="454.55" x2="596.1809" y1="525.97" y2="525.97"/><line style="stroke:#181818;stroke-width:0.5;" x1="454.55" x2="596.1809" y1="533.97" y2="533.97"/></g><!--class PokemonPublic--><g class="entity" data-entity="PokemonPublic" data-source-line="37" data-uid="ent0016" id="entity_PokemonPublic"><rect fill="#F1F1F1" height="80.5938" rx="2.5" ry="2.5" style="stroke:#181818;stroke-width:0.5;" width="138.4834" x="632.13" y="477.68"/><ellipse cx="647.13" cy="493.68" fill="#ADD1B2" rx="11" ry="11" style="stroke:#181818;stroke-width:1;"/><path d="M650.0988,499.3206 Q649.5206,499.6175 648.88,499.7581 Q648.2394,499.9144 647.5363,499.9144 Q645.0363,499.9144 643.7081,498.2737 Q642.3956,496.6175 642.3956,493.4925 Q642.3956,490.3675 643.7081,488.7112 Q645.0363,487.055 647.5363,487.055 Q648.2394,487.055 648.88,487.2112 Q649.5363,487.3675 650.0988,487.6644 L650.0988,490.3831 Q649.4738,489.805 648.88,489.5394 Q648.2863,489.2581 647.6613,489.2581 Q646.3175,489.2581 645.63,490.3362 Q644.9425,491.3987 644.9425,493.4925 Q644.9425,495.5862 645.63,496.6644 Q646.3175,497.7269 647.6613,497.7269 Q648.2863,497.7269 648.88,497.4612 Q649.4738,497.18 650.0988,496.6019 L650.0988,499.3206 Z " fill="#000000"/><text fill="#000000" font-family="sans-serif" font-size="14" lengthAdjust="spacing" textLength="106.4834" x="661.13" y="498.5267">PokemonPublic</text><line style="stroke:#181818;stroke-width:0.5;" x1="633.13" x2="769.6134" y1="509.68" y2="509.68"/><text fill="#000000" font-family="sans-serif" font-size="14" lengthAdjust="spacing" textLength="40.1953" x="638.13" y="526.6751">id: int</text><text fill="#000000" font-family="sans-serif" font-size="14" lengthAdjust="spacing" textLength="83.5146" x="638.13" y="542.972">team_id: int</text><line style="stroke:#181818;stroke-width:0.5;" x1="633.13" x2="769.6134" y1="550.2738" y2="550.2738"/></g><!--class User--><g class="entity" data-entity="User" data-source-line="43" data-uid="ent0018" id="entity_User"><rect fill="#F1F1F1" height="96.8906" rx="2.5" ry="2.5" style="stroke:#181818;stroke-width:0.5;" width="164.5371" x="293.1" y="163.89"/><ellipse cx="355.1635" cy="179.89" fill="#ADD1B2" rx="11" ry="11" style="stroke:#181818;stroke-width:1;"/><path d="M358.1322,185.5306 Q357.5541,185.8275 356.9135,185.9681 Q356.2729,186.1244 355.5697,186.1244 Q353.0697,186.1244 351.7416,184.4838 Q350.4291,182.8275 350.4291,179.7025 Q350.4291,176.5775 351.7416,174.9213 Q353.0697,173.265 355.5697,173.265 Q356.2729,173.265 356.9135,173.4213 Q357.5697,173.5775 358.1322,173.8744 L358.1322,176.5931 Q357.5072,176.015 356.9135,175.7494 Q356.3197,175.4681 355.6947,175.4681 Q354.351,175.4681 353.6635,176.5463 Q352.976,177.6088 352.976,179.7025 Q352.976,181.7963 353.6635,182.8744 Q354.351,183.9369 355.6947,183.9369 Q356.3197,183.9369 356.9135,183.6713 Q357.5072,183.39 358.1322,182.8119 L358.1322,185.5306 Z " fill="#000000"/><text fill="#000000" font-family="sans-serif" font-size="14" lengthAdjust="spacing" textLength="31.9102" x="375.6635" y="184.7367">User</text><line style="stroke:#181818;stroke-width:0.5;" x1="294.1" x2="456.6371" y1="195.89" y2="195.89"/><text fill="#000000" font-family="sans-serif" font-size="14" lengthAdjust="spacing" textLength="40.1953" x="299.1" y="212.8851">id: int</text><text fill="#000000" font-family="sans-serif" font-size="14" lengthAdjust="spacing" textLength="152.5371" x="299.1" y="229.182">hashed_password: str</text><text fill="#000000" font-family="sans-serif" font-size="14" lengthAdjust="spacing" textLength="66.7871" x="299.1" y="245.4789">role: Role</text><line style="stroke:#181818;stroke-width:0.5;" x1="294.1" x2="456.6371" y1="252.7806" y2="252.7806"/></g><!--class Team--><g class="entity" data-entity="Team" data-source-line="48" data-uid="ent0020" id="entity_Team"><rect fill="#F1F1F1" height="80.5938" rx="2.5" ry="2.5" style="stroke:#181818;stroke-width:0.5;" width="89.7314" x="330.5" y="328.93"/><ellipse cx="353.7573" cy="344.93" fill="#ADD1B2" rx="11" ry="11" style="stroke:#181818;stroke-width:1;"/><path d="M356.7261,350.5706 Q356.1479,350.8675 355.5073,351.0081 Q354.8667,351.1644 354.1636,351.1644 Q351.6636,351.1644 350.3354,349.5237 Q349.0229,347.8675 349.0229,344.7425 Q349.0229,341.6175 350.3354,339.9612 Q351.6636,338.305 354.1636,338.305 Q354.8667,338.305 355.5073,338.4612 Q356.1636,338.6175 356.7261,338.9144 L356.7261,341.6331 Q356.1011,341.055 355.5073,340.7894 Q354.9136,340.5081 354.2886,340.5081 Q352.9448,340.5081 352.2573,341.5862 Q351.5698,342.6487 351.5698,344.7425 Q351.5698,346.8362 352.2573,347.9144 Q352.9448,348.9769 354.2886,348.9769 Q354.9136,348.9769 355.5073,348.7112 Q356.1011,348.43 356.7261,347.8519 L356.7261,350.5706 Z " fill="#000000"/><text fill="#000000" font-family="sans-serif" font-size="14" lengthAdjust="spacing" textLength="39.3818" x="369.5923" y="349.7767">Team</text><line style="stroke:#181818;stroke-width:0.5;" x1="331.5" x2="419.2314" y1="360.93" y2="360.93"/><text fill="#000000" font-family="sans-serif" font-size="14" lengthAdjust="spacing" textLength="40.1953" x="336.5" y="377.9251">id: int</text><text fill="#000000" font-family="sans-serif" font-size="14" lengthAdjust="spacing" textLength="77.7314" x="336.5" y="394.222">user_id: int</text><line style="stroke:#181818;stroke-width:0.5;" x1="331.5" x2="419.2314" y1="401.5237" y2="401.5237"/></g><!--class Pokemon--><g class="entity" data-entity="Pokemon" data-source-line="53" data-uid="ent0023" id="entity_Pokemon"><rect fill="#F1F1F1" height="80.5938" rx="2.5" ry="2.5" style="stroke:#181818;stroke-width:0.5;" width="96.8047" x="321.97" y="477.68"/><ellipse cx="336.97" cy="493.68" fill="#ADD1B2" rx="11" ry="11" style="stroke:#181818;stroke-width:1;"/><path d="M339.9388,499.3206 Q339.3606,499.6175 338.72,499.7581 Q338.0794,499.9144 337.3763,499.9144 Q334.8763,499.9144 333.5481,498.2737 Q332.2356,496.6175 332.2356,493.4925 Q332.2356,490.3675 333.5481,488.7112 Q334.8763,487.055 337.3763,487.055 Q338.0794,487.055 338.72,487.2112 Q339.3763,487.3675 339.9388,487.6644 L339.9388,490.3831 Q339.3138,489.805 338.72,489.5394 Q338.1263,489.2581 337.5013,489.2581 Q336.1575,489.2581 335.47,490.3362 Q334.7825,491.3987 334.7825,493.4925 Q334.7825,495.5862 335.47,496.6644 Q336.1575,497.7269 337.5013,497.7269 Q338.1263,497.7269 338.72,497.4612 Q339.3138,497.18 339.9388,496.6019 L339.9388,499.3206 Z " fill="#000000"/><text fill="#000000" font-family="sans-serif" font-size="14" lengthAdjust="spacing" textLength="64.8047" x="350.97" y="498.5267">Pokemon</text><line style="stroke:#181818;stroke-width:0.5;" x1="322.97" x2="417.7747" y1="509.68" y2="509.68"/><text fill="#000000" font-family="sans-serif" font-size="14" lengthAdjust="spacing" textLength="40.1953" x="327.97" y="526.6751">id: int</text><text fill="#000000" font-family="sans-serif" font-size="14" lengthAdjust="spacing" textLength="83.5146" x="327.97" y="542.972">team_id: int</text><line style="stroke:#181818;stroke-width:0.5;" x1="322.97" x2="417.7747" y1="550.2738" y2="550.2738"/></g><g class="entity" data-entity="n1" data-source-line="59" data-uid="ent0026" id="entity_n1"><path d="M295.14,20.18 L295.14,90.7112 L511.597,90.7112 L511.597,30.18 L501.597,20.18 L295.14,20.18" fill="#FEFFDD" style="stroke:#181818;stroke-width:0.5;"/><path d="M501.597,20.18 L501.597,30.18 L511.597,30.18 L501.597,20.18" fill="#FEFFDD" style="stroke:#181818;stroke-width:1;"/><text fill="#000000" font-family="sans-serif" font-size="13" lengthAdjust="spacing" textLength="150.2998" x="301.14" y="37.2469">The *Update version of</text><text fill="#000000" font-family="sans-serif" font-size="13" lengthAdjust="spacing" textLength="195.457" x="301.14" y="52.3797">each model won't be included</text><text fill="#000000" font-family="sans-serif" font-size="13" lengthAdjust="spacing" textLength="134.1514" x="301.14" y="67.5125">because its a replica</text><text fill="#000000" font-family="sans-serif" font-size="13" lengthAdjust="spacing" textLength="117.73" x="301.14" y="82.6453">of the base model</text></g><!--reverse link UserBase to UserCreate--><g class="link" data-entity-1="UserBase" data-entity-2="UserCreate" data-source-line="14" data-uid="lnk5" id="link_UserBase_UserCreate"><path d="M164.2208,101.0163 C139.4908,127.8063 116.29,152.93 91.51,179.78" fill="none" id="UserBase-backto-UserCreate" style="stroke:#181818;stroke-width:1;"/><polygon fill="none" points="176.43,87.79,159.812,96.9465,168.6295,105.086,176.43,87.79" style="stroke:#181818;stroke-width:1;"/></g><!--reverse link UserBase to UserPublic--><g class="link" data-entity-1="UserBase" data-entity-2="UserPublic" data-source-line="18" data-uid="lnk7" id="link_UserBase_UserPublic"><path d="M205.37,105.79 C205.37,130.02 205.37,145.69 205.37,171.77" fill="none" id="UserBase-backto-UserPublic" style="stroke:#181818;stroke-width:1;"/><polygon fill="none" points="205.37,87.79,199.37,105.79,211.37,105.79,205.37,87.79" style="stroke:#181818;stroke-width:1;"/></g><!--reverse link TeamBase to TeamCreate--><g class="link" data-entity-1="TeamBase" data-entity-2="TeamCreate" data-source-line="25" data-uid="lnk10" id="link_TeamBase_TeamCreate"><path d="M682.37,262.68 C682.37,292.39 682.37,318.31 682.37,345" fill="none" id="TeamBase-backto-TeamCreate" style="stroke:#181818;stroke-width:1;"/><polygon fill="none" points="682.37,244.68,676.37,262.68,688.37,262.68,682.37,244.68" style="stroke:#181818;stroke-width:1;"/></g><!--reverse link TeamBase to TeamPublic--><g class="link" data-entity-1="TeamBase" data-entity-2="TeamPublic" data-source-line="27" data-uid="lnk12" id="link_TeamBase_TeamPublic"><path d="M725.4919,257.5718 C749.1019,281.8018 769.37,302.59 794.79,328.66" fill="none" id="TeamBase-backto-TeamPublic" style="stroke:#181818;stroke-width:1;"/><polygon fill="none" points="712.93,244.68,721.1947,261.7591,729.7892,253.3845,712.93,244.68" style="stroke:#181818;stroke-width:1;"/></g><!--reverse link PokemonBase to PokemonCreate--><g class="link" data-entity-1="PokemonBase" data-entity-2="PokemonCreate" data-source-line="36" data-uid="lnk15" id="link_PokemonBase_PokemonCreate"><path d="M523.7078,435.8662 C524.2278,461.3062 524.48,473.48 524.89,493.79" fill="none" id="PokemonBase-backto-PokemonCreate" style="stroke:#181818;stroke-width:1;"/><polygon fill="none" points="523.34,417.87,517.7091,435.9889,529.7066,435.7436,523.34,417.87" style="stroke:#181818;stroke-width:1;"/></g><!--reverse link PokemonBase to PokemonPublic--><g class="link" data-entity-1="PokemonBase" data-entity-2="PokemonPublic" data-source-line="38" data-uid="lnk17" id="link_PokemonBase_PokemonPublic"><path d="M594.3993,429.2829 C617.7793,448.4529 630.51,458.88 652.83,477.18" fill="none" id="PokemonBase-backto-PokemonPublic" style="stroke:#181818;stroke-width:1;"/><polygon fill="none" points="580.48,417.87,590.595,433.9226,598.2036,424.6431,580.48,417.87" style="stroke:#181818;stroke-width:1;"/></g><!--reverse link UserBase to User--><g class="link" data-entity-1="UserBase" data-entity-2="User" data-source-line="44" data-uid="lnk19" id="link_UserBase_User"><path d="M253.075,99.9134 C276.945,121.6634 295.87,138.91 322.92,163.56" fill="none" id="UserBase-backto-User" style="stroke:#181818;stroke-width:1;"/><polygon fill="none" points="239.77,87.79,249.0339,104.3484,257.1162,95.4783,239.77,87.79" style="stroke:#181818;stroke-width:1;"/></g><!--reverse link User to Team--><g class="link" data-entity-1="User" data-entity-2="Team" data-source-line="48" data-uid="lnk21" id="link_User_Team"><path codeLine="48" d="M375.37,273.08 C375.37,294.68 375.37,307.91 375.37,328.46" fill="none" id="User-backto-Team" style="stroke:#181818;stroke-width:1;"/><polygon fill="#181818" points="375.37,261.08,371.37,267.08,375.37,273.08,379.37,267.08,375.37,261.08" style="stroke:#181818;stroke-width:1;"/></g><!--reverse link TeamBase to Team--><g class="link" data-entity-1="TeamBase" data-entity-2="Team" data-source-line="50" data-uid="lnk22" id="link_TeamBase_Team"><path d="M612.7366,239.2493 C562.3766,258.6793 501.96,284.35 439.37,320.79 C433.15,324.4 426.82,328.51 420.68,332.76" fill="none" id="TeamBase-backto-Team" style="stroke:#181818;stroke-width:1;"/><polygon fill="none" points="629.53,232.77,610.5768,233.6515,614.8963,244.8471,629.53,232.77" style="stroke:#181818;stroke-width:1;"/></g><!--reverse link Team to Pokemon--><g class="link" data-entity-1="Team" data-entity-2="Pokemon" data-source-line="53" data-uid="lnk24" id="link_Team_Pokemon"><path codeLine="53" d="M373.6065,421.9329 C372.8865,442.8129 372.43,456.35 371.72,477.23" fill="none" id="Team-backto-Pokemon" style="stroke:#181818;stroke-width:1;"/><polygon fill="#181818" points="374.02,409.94,369.8156,415.7986,373.6065,421.9329,377.8109,416.0743,374.02,409.94" style="stroke:#181818;stroke-width:1;"/></g><!--reverse link PokemonBase to Pokemon--><g class="link" data-entity-1="PokemonBase" data-entity-2="Pokemon" data-source-line="55" data-uid="lnk25" id="link_PokemonBase_Pokemon"><path d="M460.07,430.3719 C440.13,449.6219 430.34,459.07 411.34,477.42" fill="none" id="PokemonBase-backto-Pokemon" style="stroke:#181818;stroke-width:1;"/><polygon fill="none" points="473.02,417.87,455.9027,426.0552,464.2373,434.6886,473.02,417.87" style="stroke:#181818;stroke-width:1;"/></g><!--SRC=[dL7BRi8m4BpdArPS8Y5nw9LRA1mgbOBok24X9rwKg8uTsGvKglhltHXed42bqfpipSnuPXPbMqEi17u6G5-Mh69tM6-MgpXAD-TRj5o_l0LVGH1syzSaA0Gp1ZA3Ui7CXTlIJR8Qvs2ixi0zw5aZimZuOL7oCQyXr4bfVeUtRNDH5R_mAc9KqhgpfWHpbwCNI97LFTftrlyV6RjIFCJ8mb3Kjz35try7FoQswXrh9U_vw6wcmQ92qmy47b5SDGOI8wkUy10tCdnZmFTiAOtlELn6QRI8afMtWp-qNp9J8jyF5tcp5YSsdSrSXrx3ZtVhM9tI9TomWFz5buhAdQGbmZHhUDVq4RMfI4uTTX9PKKAjE0euAHbQo968XMWvyftCiM1a4IfhW876XXR0Tb8Tm99UJk-VkHDW1kHJy0q0]--></g></svg>