<svg xmlns="http://www.w3.org/2000/svg" xmlns:xlink="http://www.w3.org/1999/xlink" contentStyleType="text/css" data-diagram-type="DESCRIPTION" height="1303px" preserveAspectRatio="none" style="width:697px;height:1303px;background:#FFFFFF;" version="1.1" viewBox="0 0 697 1303" width="697px" zoomAndPan="magnify"><defs/><g><!--cluster app--><g class="cluster" data-entity="app" data-source-line="10" data-uid="ent0007" id="cluster_app"><rect fill="none" height="1290" rx="2.5" ry="2.5" style="stroke:#181818;stroke-width:1;" width="396.55" x="295.06" y="7"/><text fill="#000000" font-family="sans-serif" font-size="14" font-weight="bold" lengthAdjust="spacing" textLength="194.8994" x="395.8853" y="21.9951">Pokemon Team Manager</text></g><!--cluster General Use Cases--><g class="cluster" data-entity="General Use Cases" data-source-line="11" data-uid="ent0008" id="cluster_General Use Cases"><rect fill="none" height="594" rx="2.5" ry="2.5" style="stroke:#181818;stroke-width:1;" width="328.21" x="329.23" y="50"/><path d="M485.6558,50 L485.6558,59.2969 L475.6558,69.2969 L329.23,69.2969" fill="none" style="stroke:#181818;stroke-width:1;"/><text fill="#000000" font-family="sans-serif" font-size="14" font-weight="bold" lengthAdjust="spacing" textLength="146.4258" x="332.23" y="63.9951">General Use Cases</text></g><!--cluster Moderator operations--><g class="cluster" data-entity="Moderator operations" data-source-line="20" data-uid="ent0023" id="cluster_Moderator operations"><rect fill="none" height="425" rx="2.5" ry="2.5" style="stroke:#181818;stroke-width:1;" width="348.55" x="319.06" y="668"/><path d="M501.4623,668 L501.4623,677.2969 L491.4623,687.2969 L319.06,687.2969" fill="none" style="stroke:#181818;stroke-width:1;"/><text fill="#000000" font-family="sans-serif" font-size="14" font-weight="bold" lengthAdjust="spacing" textLength="172.4023" x="322.06" y="681.9951">Moderator operations</text></g><!--cluster Admin operations--><g class="cluster" data-entity="Admin operations" data-source-line="27" data-uid="ent0034" id="cluster_Admin operations"><rect fill="none" height="156" rx="2.5" ry="2.5" style="stroke:#181818;stroke-width:1;" width="208.16" x="389.26" y="1117"/><path d="M539.2395,1117 L539.2395,1126.2969 L529.2395,1136.2969 L389.26,1136.2969" fill="none" style="stroke:#181818;stroke-width:1;"/><text fill="#000000" font-family="sans-serif" font-size="14" font-weight="bold" lengthAdjust="spacing" textLength="139.9795" x="392.26" y="1130.9951">Admin operations</text></g><!--entity Create Team--><g class="entity" data-entity="Create Team" data-source-line="12" data-uid="ent0009" id="entity_Create Team"><ellipse cx="493.338" cy="612.9996" fill="#F1F1F1" rx="63.948" ry="15.1896" style="stroke:#181818;stroke-width:0.5;"/><text fill="#000000" font-family="sans-serif" font-size="14" lengthAdjust="spacing" textLength="90.6582" x="448.0089" y="617.648">Create Team</text></g><!--entity Read my Teams--><g class="entity" data-entity="Read my Teams" data-source-line="13" data-uid="ent0011" id="entity_Read my Teams"><ellipse cx="493.3416" cy="545.9963" fill="#F1F1F1" rx="72.7816" ry="16.9563" style="stroke:#181818;stroke-width:0.5;"/><text fill="#000000" font-family="sans-serif" font-size="14" lengthAdjust="spacing" textLength="113.3057" x="436.6888" y="550.6448">Read my Teams</text></g><!--entity Rename one of my Teams--><g class="entity" data-entity="Rename one of my Teams" data-source-line="14" data-uid="ent0013" id="entity_Rename one of my Teams"><ellipse cx="493.3428" cy="471.0026" fill="#F1F1F1" rx="103.6128" ry="23.1226" style="stroke:#181818;stroke-width:0.5;"/><text fill="#000000" font-family="sans-serif" font-size="14" lengthAdjust="spacing" textLength="183.9893" x="401.3482" y="475.651">Rename one of my Teams</text></g><!--entity Delete one of my Teams--><g class="entity" data-entity="Delete one of my Teams" data-source-line="15" data-uid="ent0015" id="entity_Delete one of my Teams"><ellipse cx="493.3375" cy="390.9975" fill="#F1F1F1" rx="98.1375" ry="22.0275" style="stroke:#181818;stroke-width:0.5;"/><text fill="#000000" font-family="sans-serif" font-size="14" lengthAdjust="spacing" textLength="171.9443" x="407.3653" y="395.6459">Delete one of my Teams</text></g><!--entity Add Pokemon to one of my Teams--><g class="entity" data-entity="Add Pokemon to one of my Teams" data-source-line="16" data-uid="ent0017" id="entity_Add Pokemon to one of my Teams"><ellipse cx="493.3377" cy="305.9955" fill="#F1F1F1" rx="130.2277" ry="28.4455" style="stroke:#181818;stroke-width:0.5;"/><text fill="#000000" font-family="sans-serif" font-size="14" lengthAdjust="spacing" textLength="241.0557" x="372.8099" y="310.644">Add Pokemon to one of my Teams</text></g><!--entity Read Pokemon in one of my Teams--><g class="entity" data-entity="Read Pokemon in one of my Teams" data-source-line="17" data-uid="ent0019" id="entity_Read Pokemon in one of my Teams"><ellipse cx="493.3361" cy="212.9952" fill="#F1F1F1" rx="133.6261" ry="29.1252" style="stroke:#181818;stroke-width:0.5;"/><text fill="#000000" font-family="sans-serif" font-size="14" lengthAdjust="spacing" textLength="248.2197" x="369.2263" y="217.6437">Read Pokemon in one of my Teams</text></g><!--entity Delete Pokemon from one of my Teams--><g class="entity" data-entity="Delete Pokemon from one of my Teams" data-source-line="18" data-uid="ent0021" id="entity_Delete Pokemon from one of my Teams"><ellipse cx="493.3357" cy="117.0011" fill="#F1F1F1" rx="148.1057" ry="32.0211" style="stroke:#181818;stroke-width:0.5;"/><text fill="#000000" font-family="sans-serif" font-size="14" lengthAdjust="spacing" textLength="278.5371" x="354.0671" y="121.6496">Delete Pokemon from one of my Teams</text></g><!--entity List Users--><g class="entity" data-entity="List Users" data-source-line="21" data-uid="ent0024" id="entity_List Users"><ellipse cx="493.343" cy="718.0036" fill="#F1F1F1" rx="51.173" ry="14.5236" style="stroke:#181818;stroke-width:0.5;"/><text fill="#000000" font-family="sans-serif" font-size="14" lengthAdjust="spacing" textLength="68.127" x="459.2796" y="722.6521">List Users</text></g><!--entity Read User's Team--><g class="entity" data-entity="Read User.s Team" data-source-line="22" data-uid="ent0026" id="entity_Read User.s Team"><ellipse cx="493.3361" cy="786.0012" fill="#F1F1F1" rx="78.5061" ry="18.1012" style="stroke:#181818;stroke-width:0.5;"/><text fill="#000000" font-family="sans-serif" font-size="14" lengthAdjust="spacing" textLength="127.1416" x="429.7653" y="790.6497">Read User's Team</text></g><!--entity Delete User's Team--><g class="entity" data-entity="Delete User.s Team" data-source-line="23" data-uid="ent0028" id="entity_Delete User.s Team"><ellipse cx="493.3441" cy="857.9988" fill="#F1F1F1" rx="82.8441" ry="18.9688" style="stroke:#181818;stroke-width:0.5;"/><text fill="#000000" font-family="sans-serif" font-size="14" lengthAdjust="spacing" textLength="137.334" x="424.6771" y="862.6473">Delete User's Team</text></g><!--entity Read Pokemon in one of User's Teams--><g class="entity" data-entity="Read Pokemon in one of User.s Teams" data-source-line="24" data-uid="ent0030" id="entity_Read Pokemon in one of User.s Teams"><ellipse cx="493.3426" cy="943.0005" fill="#F1F1F1" rx="143.7026" ry="31.1405" style="stroke:#181818;stroke-width:0.5;"/><text fill="#000000" font-family="sans-serif" font-size="14" lengthAdjust="spacing" textLength="269.3496" x="358.6678" y="947.649">Read Pokemon in one of User's Teams</text></g><!--entity Delete Pokemon from one of User's Teams--><g class="entity" data-entity="Delete Pokemon from one of User.s Teams" data-source-line="25" data-uid="ent0032" id="entity_Delete Pokemon from one of User.s Teams"><ellipse cx="493.344" cy="1043.0048" fill="#F1F1F1" rx="158.274" ry="34.0548" style="stroke:#181818;stroke-width:0.5;"/><text fill="#000000" font-family="sans-serif" font-size="14" lengthAdjust="spacing" textLength="299.667" x="343.5105" y="1047.6532">Delete Pokemon from one of User's Teams</text></g><!--entity Change a User's Role--><g class="entity" data-entity="Change a User.s Role" data-source-line="28" data-uid="ent0035" id="entity_Change a User.s Role"><ellipse cx="493.339" cy="1171.9958" fill="#F1F1F1" rx="88.079" ry="20.0158" style="stroke:#181818;stroke-width:0.5;"/><text fill="#000000" font-family="sans-serif" font-size="14" lengthAdjust="spacing" textLength="149.3789" x="418.6496" y="1176.6442">Change a User's Role</text></g><!--entity Delete User--><g class="entity" data-entity="Delete User" data-source-line="29" data-uid="ent0037" id="entity_Delete User"><ellipse cx="493.3383" cy="1241.9957" fill="#F1F1F1" rx="60.9283" ry="14.5857" style="stroke:#181818;stroke-width:0.5;"/><text fill="#000000" font-family="sans-serif" font-size="14" lengthAdjust="spacing" textLength="82.3594" x="452.1587" y="1246.6441">Delete User</text></g><!--entity u--><g class="entity" data-entity="u" data-source-line="3" data-uid="ent0002" id="entity_u"><ellipse cx="259.1051" cy="411.35" fill="#F1F1F1" rx="4.5" ry="4.5" style="stroke:#181818;stroke-width:0.5;"/><path d="M246.6051,417.85 L246.6051,422.85 L256.1051,422.85 L256.1051,425.1074 L246.6051,434.6074 L250.8477,438.85 L259.1051,430.5926 L267.3624,438.85 L271.6051,434.6074 L262.1051,425.1074 L262.1051,422.85 L271.6051,422.85 L271.6051,417.85 L246.6051,417.85" fill="#F1F1F1" style="stroke:#181818;stroke-width:0.5;"/><text fill="#000000" font-family="sans-serif" font-size="14" lengthAdjust="spacing" textLength="31.9102" x="243.15" y="452.3451">User</text></g><!--entity m--><g class="entity" data-entity="m" data-source-line="4" data-uid="ent0003" id="entity_m"><ellipse cx="147.005" cy="840.35" fill="#F1F1F1" rx="4.5" ry="4.5" style="stroke:#181818;stroke-width:0.5;"/><path d="M134.505,846.85 L134.505,851.85 L144.005,851.85 L144.005,854.1074 L134.505,863.6074 L138.7477,867.85 L147.005,859.5926 L155.2624,867.85 L159.505,863.6074 L150.005,854.1074 L150.005,851.85 L159.505,851.85 L159.505,846.85 L134.505,846.85" fill="#F1F1F1" style="stroke:#181818;stroke-width:0.5;"/><text fill="#000000" font-family="sans-serif" font-size="14" lengthAdjust="spacing" textLength="72.29" x="110.86" y="881.3451">Moderator</text></g><!--entity a--><g class="entity" data-entity="a" data-source-line="5" data-uid="ent0004" id="entity_a"><ellipse cx="28.4321" cy="1151.35" fill="#F1F1F1" rx="4.5" ry="4.5" style="stroke:#181818;stroke-width:0.5;"/><path d="M15.9321,1157.85 L15.9321,1162.85 L25.4321,1162.85 L25.4321,1165.1074 L15.9321,1174.6074 L20.1748,1178.85 L28.4321,1170.5926 L36.6895,1178.85 L40.9321,1174.6074 L31.4321,1165.1074 L31.4321,1162.85 L40.9321,1162.85 L40.9321,1157.85 L15.9321,1157.85" fill="#F1F1F1" style="stroke:#181818;stroke-width:0.5;"/><text fill="#000000" font-family="sans-serif" font-size="14" lengthAdjust="spacing" textLength="44.8643" x="6" y="1192.3451">Admin</text></g><!--link m to u--><g class="link" data-entity-1="m" data-entity-2="u" data-source-line="7" data-uid="lnk5" id="link_m_u"><path d="M154.4,835.08 C173.86,759.26 227.7337,549.3345 247.2237,473.4245" fill="none" id="m-to-u" style="stroke:#181818;stroke-width:1;"/><polygon fill="none" points="251.7,455.99,241.4122,471.9324,253.0352,474.9166,251.7,455.99" style="stroke:#181818;stroke-width:1;"/></g><!--link a to m--><g class="link" data-entity-1="a" data-entity-2="m" data-source-line="8" data-uid="lnk6" id="link_a_m"><path d="M38.78,1146.08 C60.6,1087.84 108.4326,960.245 130.3026,901.895" fill="none" id="a-to-m" style="stroke:#181818;stroke-width:1;"/><polygon fill="none" points="136.62,885.04,124.6843,899.7892,135.921,904.0008,136.62,885.04" style="stroke:#181818;stroke-width:1;"/></g><!--link u to Create Team--><g class="link" data-entity-1="u" data-entity-2="Create Team" data-source-line="12" data-uid="lnk10" id="link_u_Create Team"><path d="M261.23,456.02 C263.46,493.88 269.84,563.11 287.06,580 C325.85,618.03 383.9892,623.0827 430.2592,620.5127" fill="none" id="u-to-Create Team" style="stroke:#181818;stroke-width:1;"/><polygon fill="#181818" points="436.25,620.18,427.042,616.6853,431.2577,620.4573,427.4857,624.673,436.25,620.18" style="stroke:#181818;stroke-width:1;"/></g><!--link u to Read my Teams--><g class="link" data-entity-1="u" data-entity-2="Read my Teams" data-source-line="13" data-uid="lnk12" id="link_u_Read my Teams"><path d="M261.75,455.99 C264.34,474.24 270.84,498.14 287.06,512 C324.56,544.02 374.43,551.5518 418.42,551.6118" fill="none" id="u-to-Read my Teams" style="stroke:#181818;stroke-width:1;"/><polygon fill="#181818" points="424.42,551.62,415.4255,547.6077,419.42,551.6132,415.4146,555.6077,424.42,551.62" style="stroke:#181818;stroke-width:1;"/></g><!--link u to Rename one of my Teams--><g class="link" data-entity-1="u" data-entity-2="Rename one of my Teams" data-source-line="14" data-uid="lnk14" id="link_u_Rename one of my Teams"><path d="M275.35,433.62 C302.44,438.29 354.8772,447.321 404.2572,455.831" fill="none" id="u-to-Rename one of my Teams" style="stroke:#181818;stroke-width:1;"/><polygon fill="#181818" points="410.17,456.85,401.9801,451.3796,405.2426,456.0008,400.6214,459.2634,410.17,456.85" style="stroke:#181818;stroke-width:1;"/></g><!--link u to Delete one of my Teams--><g class="link" data-entity-1="u" data-entity-2="Delete one of my Teams" data-source-line="15" data-uid="lnk16" id="link_u_Delete one of my Teams"><path d="M275.35,428.38 C303.2,423.58 358.1671,414.1088 408.3671,405.4588" fill="none" id="u-to-Delete one of my Teams" style="stroke:#181818;stroke-width:1;"/><polygon fill="#181818" points="414.28,404.44,404.7315,402.0264,409.3526,405.289,406.0899,409.9102,414.28,404.44" style="stroke:#181818;stroke-width:1;"/></g><!--link u to Add Pokemon to one of my Teams--><g class="link" data-entity-1="u" data-entity-2="Add Pokemon to one of my Teams" data-source-line="16" data-uid="lnk18" id="link_u_Add Pokemon to one of my Teams"><path d="M262.11,406.18 C264.88,388.31 271.46,364.99 287.06,351 C309,331.34 331.6832,320.9897 360.4532,314.1397" fill="none" id="u-to-Add Pokemon to one of my Teams" style="stroke:#181818;stroke-width:1;"/><polygon fill="#181818" points="366.29,312.75,356.6083,310.9434,361.426,313.9081,358.4612,318.7258,366.29,312.75" style="stroke:#181818;stroke-width:1;"/></g><!--link u to Read Pokemon in one of my Teams--><g class="link" data-entity-1="u" data-entity-2="Read Pokemon in one of my Teams" data-source-line="17" data-uid="lnk20" id="link_u_Read Pokemon in one of my Teams"><path d="M260.71,405.92 C262.26,363.63 267.74,280.71 287.06,260 C306.84,238.82 328.2302,227.7489 356.3702,220.4889" fill="none" id="u-to-Read Pokemon in one of my Teams" style="stroke:#181818;stroke-width:1;"/><polygon fill="#181818" points="362.18,218.99,352.4661,217.3652,357.3385,220.2391,354.4646,225.1115,362.18,218.99" style="stroke:#181818;stroke-width:1;"/></g><!--link u to Delete Pokemon from one of my Teams--><g class="link" data-entity-1="u" data-entity-2="Delete Pokemon from one of my Teams" data-source-line="18" data-uid="lnk22" id="link_u_Delete Pokemon from one of my Teams"><path d="M261.02,406.22 C263.52,343.81 271.42,183.88 287.06,166 C303.96,146.7 321.2455,136.1187 345.7455,128.2787" fill="none" id="u-to-Delete Pokemon from one of my Teams" style="stroke:#181818;stroke-width:1;"/><polygon fill="#181818" points="351.46,126.45,341.6691,125.3833,346.6979,127.9739,344.1073,133.0027,351.46,126.45" style="stroke:#181818;stroke-width:1;"/></g><!--link m to List Users--><g class="link" data-entity-1="m" data-entity-2="List Users" data-source-line="21" data-uid="lnk25" id="link_m_List Users"><path d="M171.53,834.95 C197.29,809.19 241.09,770.09 287.06,750 C336.81,728.27 393.0185,721.349 435.8385,719.069" fill="none" id="m-to-List Users" style="stroke:#181818;stroke-width:1;"/><polygon fill="#181818" points="441.83,718.75,432.63,715.2342,436.8371,719.0159,433.0554,723.2229,441.83,718.75" style="stroke:#181818;stroke-width:1;"/></g><!--link m to Read User's Team--><g class="link" data-entity-1="m" data-entity-2="Read User.s Team" data-source-line="22" data-uid="lnk27" id="link_m_Read User.s Team"><path d="M183.63,849.61 C201.47,844.48 223.41,838.27 243.15,833 C262.59,827.81 267.39,826.18 287.06,822 C333.78,812.07 380.9791,803.771 421.4691,797.131" fill="none" id="m-to-Read User's Team" style="stroke:#181818;stroke-width:1;"/><polygon fill="#181818" points="427.39,796.16,417.8613,793.6692,422.4559,796.9691,419.1559,801.5637,427.39,796.16" style="stroke:#181818;stroke-width:1;"/></g><!--link m to Delete User's Team--><g class="link" data-entity-1="m" data-entity-2="Delete User.s Team" data-source-line="23" data-uid="lnk29" id="link_m_Delete User.s Team"><path d="M183.56,859.79 C236.66,859.49 332.1301,858.9349 404.2501,858.5149" fill="none" id="m-to-Delete User's Team" style="stroke:#181818;stroke-width:1;"/><polygon fill="#181818" points="410.25,858.48,401.2269,854.5325,405.2501,858.5091,401.2734,862.5323,410.25,858.48" style="stroke:#181818;stroke-width:1;"/></g><!--link m to Read Pokemon in one of User's Teams--><g class="link" data-entity-1="m" data-entity-2="Read Pokemon in one of User.s Teams" data-source-line="24" data-uid="lnk31" id="link_m_Read Pokemon in one of User.s Teams"><path d="M183.43,868.72 C211.53,875.62 251.79,885.48 287.06,894 C322.32,902.52 355.1735,910.3887 389.3635,918.5387" fill="none" id="m-to-Read Pokemon in one of User's Teams" style="stroke:#181818;stroke-width:1;"/><polygon fill="#181818" points="395.2,919.93,387.3728,913.9521,390.3363,918.7706,385.5178,921.7341,395.2,919.93" style="stroke:#181818;stroke-width:1;"/></g><!--link m to Delete Pokemon from one of User's Teams--><g class="link" data-entity-1="m" data-entity-2="Delete Pokemon from one of User.s Teams" data-source-line="25" data-uid="lnk33" id="link_m_Delete Pokemon from one of User.s Teams"><path d="M167.31,884.94 C191.88,914.93 237.15,964.64 287.06,992 C311.21,1005.24 333.0392,1013.5295 360.0292,1020.8495" fill="none" id="m-to-Delete Pokemon from one of User's Teams" style="stroke:#181818;stroke-width:1;"/><polygon fill="#181818" points="365.82,1022.42,358.1808,1016.2037,360.9943,1021.1112,356.0868,1023.9247,365.82,1022.42" style="stroke:#181818;stroke-width:1;"/></g><!--link a to Change a User's Role--><g class="link" data-entity-1="a" data-entity-2="Change a User.s Role" data-source-line="28" data-uid="lnk36" id="link_a_Change a User.s Role"><path d="M51.14,1171.05 C113.43,1171.18 289.33,1171.5569 399.16,1171.7969" fill="none" id="a-to-Change a User's Role" style="stroke:#181818;stroke-width:1;"/><polygon fill="#181818" points="405.16,1171.81,396.1688,1167.7903,400.16,1171.7991,396.1513,1175.7903,405.16,1171.81" style="stroke:#181818;stroke-width:1;"/></g><!--link a to Delete User--><g class="link" data-entity-1="a" data-entity-2="Delete User" data-source-line="29" data-uid="lnk38" id="link_a_Delete User"><path d="M51.14,1174.33 C120.85,1185.02 334.4194,1217.7802 435.0694,1233.2202" fill="none" id="a-to-Delete User" style="stroke:#181818;stroke-width:1;"/><polygon fill="#181818" points="441,1234.13,432.7106,1228.8116,436.0578,1233.3719,431.4975,1236.7191,441,1234.13" style="stroke:#181818;stroke-width:1;"/></g><!--SRC=[ZLBRQiCm37ttLuYyR7teBnHA1tjPOPJj0qIj9AQ-1DjbbAt_Fjb9c9ibwmG6MJewkeQJiXrwD837w7o85qtGEgtTXz1KHuWEl6hQ259vEaRbhCX8U0_a0GESX__UIVAOD3QQmRYLHjbaG24ChDTVcuJl5ID4OaJRSChgrPt8E0jlnBNiqM93ligHNVSfWANcAXduJ9Rpw9GVTXWeLBqxoPcPD_2uyuIHCjLgwZiGIZ2Nx0mpNfkIECklNeOzaQPu7xQL4iQ-U8xtuBcq4SzZ-sSLOqJjdPcFkPRp-zcJwvB26or7Q7hk5nLYNd6HrXHb9jT3c8pOtDJr5sIXrI8aBD7EjVixxgRb_WfdsyNXObe-G-BVm7HmcbPJKD7NcEGgMBu1]--></g></svg>